<?xml version="1.0" encoding="utf-8"?>
<!-- Generator: Adobe Illustrator 24.0.1, SVG Export Plug-In . SVG Version: 6.00 Build 0)  -->
<svg version="1.1" id="Capa_1" xmlns="http://www.w3.org/2000/svg" xmlns:xlink="http://www.w3.org/1999/xlink" x="0px" y="0px"
	 viewBox="0 0 55 55" style="enable-background:new 0 0 55 55;" xml:space="preserve">
<style type="text/css">
	.st0{fill:#D95C01;}
	.st1{fill:#443D4B;}
	.st2{fill:#79B738;}
</style>
<title>Recurso 2</title>
<g id="Capa_2_1_">
	<g id="Capa_2-2">
		<path class="st0" d="M50.7,48.2c2.6-1.9,4.2-4.9,4.3-8.2c0-6.6-7.2-12-16-12s-16,5.4-16,12s7.2,12,16,12c1.5,0,3-0.2,4.4-0.5
			L53,55L50.7,48.2z"/>
		<path class="st1" d="M26.5,0C11.9,0,0,9.2,0,20.5C0,26,2.8,31,7.4,34.7L3,45l15.6-4.9c2.6,0.6,5.2,0.9,7.9,0.9
			C41.1,41,53,31.8,53,20.5S41.1,0,26.5,0z"/>
		<circle class="st2" cx="14" cy="21" r="3"/>
		<circle class="st2" cx="27" cy="21" r="3"/>
		<circle class="st2" cx="40" cy="21" r="3"/>
	</g>
</g>
</svg>
