<?xml version="1.0" encoding="utf-8"?>
<!-- Generator: Adobe Illustrator 24.0.1, SVG Export Plug-In . SVG Version: 6.00 Build 0)  -->
<svg version="1.1" id="Capa_1" xmlns="http://www.w3.org/2000/svg" xmlns:xlink="http://www.w3.org/1999/xlink" x="0px" y="0px"
	 viewBox="0 0 56 44" style="enable-background:new 0 0 56 44;" xml:space="preserve">
<style type="text/css">
	.st0{fill:#79B738;}
	.st1{fill:#D95C01;}
	.st2{fill:#443D4B;}
</style>
<title>Recurso 6</title>
<g id="Capa_2_1_">
	<g id="Capa_2-2">
		<polygon class="st0" points="22,13 22,31 37,22 		"/>
		<path class="st1" d="M28,8c7.7,0,14,6.3,14,14s-6.3,14-14,14s-14-6.3-14-14S20.3,8,28,8 M28,4c-9.9,0-18,8.1-18,18s8.1,18,18,18
			s18-8.1,18-18S37.9,4,28,4z"/>
		<path class="st2" d="M56,13V9.2c0-5-4-9.1-9-9.2c0,0,0,0,0,0h-4v4h3.9c2.9,0,5.2,2.4,5.1,5.2c0,0,0,0,0,0V13H56z"/>
		<path class="st2" d="M9,0C4,0,0,4.1,0,9.2c0,0,0,0,0,0V13h3.9V9.2C3.9,6.4,6.2,4,9.1,4c0,0,0,0,0,0H13V0H9z"/>
		<path class="st2" d="M9.1,40c-2.9,0-5.2-2.4-5.1-5.2c0,0,0,0,0,0V31H0v3.8c0,5,4,9.1,9,9.2c0,0,0,0,0,0h4v-4H9.1z"/>
		<path class="st2" d="M47,44c5,0,9-4.1,9-9.2c0,0,0,0,0,0V31h-3.9v3.8c0,2.9-2.3,5.2-5.1,5.2c0,0,0,0,0,0H43v4H47z"/>
	</g>
</g>
</svg>
