<?xml version="1.0" encoding="utf-8"?>
<!-- Generator: Adobe Illustrator 24.0.1, SVG Export Plug-In . SVG Version: 6.00 Build 0)  -->
<svg version="1.1" id="Capa_1" xmlns="http://www.w3.org/2000/svg" xmlns:xlink="http://www.w3.org/1999/xlink" x="0px" y="0px"
	 viewBox="0 0 61.6 47" style="enable-background:new 0 0 61.6 47;" xml:space="preserve">
<style type="text/css">
	.st0{fill:#443D4B;}
	.st1{fill:#79B738;}
	.st2{fill:#FFFFFF;}
	.st3{fill:#D95C01;}
</style>
<title>Recurso 3</title>
<g id="Capa_2_1_">
	<g id="Capa_2-2">
		<path class="st0" d="M12.4,0h37.5c2.1,0,3.7,1.7,3.7,3.7v24.5c0,2.1-1.7,3.7-3.7,3.7H12.4c-2.1,0-3.7-1.7-3.7-3.7V3.7
			C8.6,1.7,10.3,0,12.4,0z"/>
		<path class="st1" d="M20.7,5h20.8c2.3,0,4.1,1.8,4.1,4.1v11.8c0,2.3-1.8,4.1-4.1,4.1H20.7c-2.3,0-4.1-1.8-4.1-4.1V9.1
			C16.6,6.8,18.5,5,20.7,5z"/>
		<polygon class="st2" points="27.6,10.4 27.6,20 35.6,15.2 		"/>
		<path class="st0" d="M8.6,28l-8,14c0,0-3,5,4,5h54c0,0,5,0,2-6s-7-13-7-13H8.6z"/>
		<path class="st2" d="M12.9,28.8L6.4,40c0,0-2.4,4,3.2,4h43.7c0,0,4,0,1.6-4.8s-5.7-10.4-5.7-10.4H12.9z"/>
		<polygon class="st0" points="22.6,45 25.6,39 36.6,39 39.6,45 		"/>
		<polygon class="st3" points="12.6,35 11.6,37 16.6,37 17.6,35 		"/>
		<polygon class="st3" points="10.6,39 9.6,41 14.6,41 15.6,39 		"/>
		<polygon class="st3" points="17.6,39 16.6,41 21.6,41 22.6,39 		"/>
		<polygon class="st3" points="19.6,35 18.6,37 23.6,37 24.6,35 		"/>
		<polygon class="st3" points="14.6,31 13.6,33 18.6,33 19.6,31 		"/>
		<polygon class="st3" points="21.6,31 20.6,33 25.6,33 26.6,31 		"/>
		<polygon class="st3" points="49.6,35 50.6,37 45.6,37 44.6,35 		"/>
		<polygon class="st3" points="51.6,39 52.6,41 47.6,41 46.6,39 		"/>
		<polygon class="st3" points="44.6,39 45.6,41 40.6,41 39.6,39 		"/>
		<polygon class="st3" points="42.6,35 43.6,37 38.6,37 37.6,35 		"/>
		<polygon class="st3" points="47.6,31 48.6,33 43.6,33 42.6,31 		"/>
		<polygon class="st3" points="40.6,31 41.6,33 36.6,33 35.6,31 		"/>
		<polygon class="st3" points="28.6,31 27.6,33 34.6,33 33.6,31 		"/>
		<polygon class="st3" points="27.9,35 26.6,37 35.6,37 34.3,35 		"/>
	</g>
</g>
</svg>
