<?xml version="1.0" encoding="utf-8"?>
<!-- Generator: Adobe Illustrator 24.0.1, SVG Export Plug-In . SVG Version: 6.00 Build 0)  -->
<svg version="1.1" id="Capa_1" xmlns="http://www.w3.org/2000/svg" xmlns:xlink="http://www.w3.org/1999/xlink" x="0px" y="0px"
	 viewBox="0 0 60 64.3" style="enable-background:new 0 0 60 64.3;" xml:space="preserve">
<style type="text/css">
	.st0{fill:#443D4B;}
	.st1{fill:#D95C01;}
	.st2{fill:#79B738;}
</style>
<title>Recurso 5</title>
<g id="Capa_2_1_">
	<g id="Capa_2-2">
		<polygon class="st0" points="31,45.3 38,51.3 60,44.3 51,40.3 		"/>
		<polygon class="st0" points="29,45.3 22,51.3 0,44.3 8,40.3 		"/>
		<polygon class="st0" points="37.7,54.1 30,47.3 22,53.3 10,49.3 13,58.3 30,64.3 47,58.3 49,50.3 		"/>
		<circle class="st1" cx="29.5" cy="36.8" r="5.5"/>
		<path class="st1" d="M25,29.3h8c-0.5-3,1.2-5.9,4-7c3.1-1.4,5.6-3.9,7-7c0,0,2-6-1-10s-9-5-9-5s-11-2-15,4v9c0,0,5-4,10-2s1,7,1,7
			l-2,2C27,21.3,25,23.3,25,29.3z"/>
		<circle class="st2" cx="41.2" cy="36.3" r="2.8"/>
		<path class="st2" d="M41.7,32l3.2,2.5c0.7-1.3,2.3-2,3.8-1.5c1.7,0.4,3.5,0.2,5-0.6c0,0,2.7-1.8,2.7-4.3c-0.1-1.8-0.8-3.5-2-4.8
			c0,0-3.8-4.3-7.3-3.1l-2.5,3.2l-0.3,0.4c0,0,3.2,0,4.6,2.3s-1.8,3.1-1.8,3.1l-1.4,0.2C45,29.4,43.5,29.6,41.7,32z"/>
		<circle class="st2" cx="18" cy="37.2" r="2.8"/>
		<path class="st2" d="M14.1,35.1l3.4-2.1c-1-1.1-1-2.8-0.1-4c1-1.4,1.4-3.1,1.2-4.9c0,0-0.7-3.1-3.1-4c-1.7-0.5-3.5-0.4-5.2,0.2
			c0,0-5.3,2-5.4,5.6l2.1,3.4l0.3,0.4c0,0,1.1-3,3.8-3.5s2.3,2.8,2.3,2.8l-0.3,1.4C12.9,31.2,12.6,32.6,14.1,35.1z"/>
	</g>
</g>
</svg>
