<?xml version="1.0" encoding="utf-8"?>
<!-- Generator: Adobe Illustrator 24.0.1, SVG Export Plug-In . SVG Version: 6.00 Build 0)  -->
<svg version="1.1" id="Capa_1" xmlns="http://www.w3.org/2000/svg" xmlns:xlink="http://www.w3.org/1999/xlink" x="0px" y="0px"
	 viewBox="0 0 56 51" style="enable-background:new 0 0 56 51;" xml:space="preserve">
<style type="text/css">
	.st0{fill:#79B738;}
	.st1{fill:#FFFFFF;}
	.st2{fill:#443D4B;}
	.st3{fill:#D95C01;}
</style>
<title>Recurso 4</title>
<g id="Capa_2_1_">
	<g id="Capa_2-2">
		<path class="st0" d="M2,3c0,0-2,0-2,3v27c0,1.1,0.9,2,2,2c2,0,35-7,35-7s1,0,1-2V1c0,0,0-1-2-1S2,3,2,3z"/>
		<ellipse class="st1" cx="18.7" cy="25.7" rx="3" ry="3.1"/>
		<path class="st1" d="M16.3,21.5h4.4c-0.3-1.7,0.6-3.3,2.2-3.9c1.7-0.8,3.1-2.2,3.8-3.9c0,0,1.1-3.4-0.5-5.6s-4.9-2.8-4.9-2.8
			s-6-1.1-8.2,2.3v5.1c0,0,2.7-2.3,5.5-1.1s0.5,3.9,0.5,3.9l-1.1,1.1C17.4,17,16.3,18.1,16.3,21.5z"/>
		<path class="st2" d="M11,11c0,0-2,0-2,3v27c0,1.1,0.9,2,2,2c2,0,35-7,35-7s1,0,1-2V9c0,0,0-1-2-1S11,11,11,11z"/>
		<ellipse class="st1" cx="27.7" cy="33.7" rx="3" ry="3.1"/>
		<path class="st1" d="M25.3,29.5h4.4c-0.3-1.7,0.6-3.3,2.2-3.9c1.7-0.8,3.1-2.2,3.8-3.9c0,0,1.1-3.4-0.5-5.6s-4.9-2.8-4.9-2.8
			s-6-1.1-8.2,2.3v5.1c0,0,2.7-2.3,5.5-1.1s0.5,3.9,0.5,3.9l-1.1,1.1C26.4,25,25.3,26.1,25.3,29.5z"/>
		<path class="st3" d="M20,19c0,0-2,0-2,3v27c0,1.1,0.9,2,2,2c2,0,35-7,35-7s1,0,1-2V17c0,0,0-1-2-1S20,19,20,19z"/>
		<ellipse class="st1" cx="36.7" cy="41.7" rx="3" ry="3.1"/>
		<path class="st1" d="M34.3,37.5h4.4c-0.3-1.7,0.6-3.3,2.2-3.9c1.7-0.8,3.1-2.2,3.8-3.9c0,0,1.1-3.4-0.5-5.6s-4.9-2.8-4.9-2.8
			s-6-1.1-8.2,2.3v5.1c0,0,2.7-2.3,5.5-1.1s0.5,3.9,0.5,3.9l-1.1,1.1C35.4,33,34.3,34.1,34.3,37.5z"/>
	</g>
</g>
</svg>
