<?xml version="1.0" encoding="utf-8"?>
<!-- Generator: Adobe Illustrator 24.0.1, SVG Export Plug-In . SVG Version: 6.00 Build 0)  -->
<svg version="1.1" id="Capa_1" xmlns="http://www.w3.org/2000/svg" xmlns:xlink="http://www.w3.org/1999/xlink" x="0px" y="0px"
	 viewBox="0 0 61 60.3" style="enable-background:new 0 0 61 60.3;" xml:space="preserve">
<style type="text/css">
	.st0{fill:#FDFFFD;}
	.st1{fill:#D95C01;}
	.st2{fill:#443D4B;}
	.st3{fill:#79B738;}
</style>
<title>Recurso 1</title>
<g id="Capa_2_1_">
	<g id="Capa_2-2">
		<polygon class="st0" points="54,45.3 58,43.3 59,12.3 39,1.3 35,2.3 34,8.3 		"/>
		<polygon class="st1" points="32,34.3 51,46.3 54,45.3 54,16.3 33,4.3 32,5.3 		"/>
		<path class="st1" d="M41.2,0.4l-0.3-0.1C33-1.6,32,5.7,32,5.7l3.2-0.1C35.5,0.9,40,3.3,40,3.3l18,10v30l3-1v-31L41.2,0.4z"/>
		<polygon class="st0" points="39,52.3 43,50.3 44,19.3 24,8.3 20,9.3 19,15.3 		"/>
		<polygon class="st2" points="17,41.3 36,53.3 39,52.3 39,23.3 18,11.3 17,12.3 		"/>
		<path class="st2" d="M26.1,7.4l-0.3-0.1C18,5.4,17,12.7,17,12.7l3.2-0.1c0.2-4.7,4.8-2.3,4.8-2.3l18,10v30l3-1v-31L26.1,7.4z"/>
		<polygon class="st0" points="22,59.3 26,57.3 27,26.3 7,15.3 3,16.3 2,22.3 		"/>
		<polygon class="st3" points="0,48.3 19,60.3 22,59.3 22,30.3 1,18.3 0,19.3 		"/>
		<path class="st3" d="M9.1,14.4l-0.3-0.1C1,12.4,0,19.7,0,19.7l3.2-0.1C3.5,14.9,8,17.3,8,17.3l18,10v30l3-1v-31L9.1,14.4z"/>
	</g>
</g>
</svg>
